<svg width="400" height="400" xmlns="http://www.w3.org/2000/svg">
 <!-- Created with Method Draw - http://github.com/duopixel/Method-Draw/ -->
 <g>
  <title>background</title>
  <rect fill="none" id="canvas_background" height="402" width="402" y="-1" x="-1"/>
 </g>
 <g>
  <title>Layer 1</title>
  <path id="svg_7" d="m64.14517,323.75952c-14.40544,-1.93055 -18.54007,-20.48617 -8.9924,-30.1763c10.45314,-13.76157 30.4583,-22.4473 46.79587,-13.97239c0.66578,-52.44075 0.28909,-104.89239 0.3885,-157.33781c82.48426,-16.50436 165.08164,-32.46331 247.60133,-48.79375c-0.23779,57.97883 0.58069,115.97664 -0.57445,173.94026c-1.98085,14.95296 -17.24199,24.88342 -30.98076,27.9888c-12.03874,3.69072 -28.99116,-4.30607 -26.14011,-18.72396c3.52545,-15.59421 19.61181,-26.83055 35.07604,-28.19754c7.65801,-2.93964 20.30539,9.71395 16.78506,-4.33097c0.21964,-28.13954 0.10934,-56.28012 0.13628,-84.42019c-38.50877,7.52749 -77.00772,15.10836 -115.51184,22.66227c-0.231,36.70978 0.55945,73.44595 -0.59361,110.13554c-3.19965,15.99723 -20.42297,26.57158 -35.9706,27.40089c-14.99133,2.91527 -27.25331,-14.51164 -18.04585,-27.21078c9.70147,-15.76726 31.85455,-26.38667 49.23536,-16.82758c0.33411,-30.76995 0.14399,-61.54401 0.19373,-92.31549c-38.6336,7.87508 -77.39678,15.14099 -116.03058,23.01606c-0.25895,37.16873 0.63346,74.38405 -0.7052,111.51547c-5.23766,17.02392 -25.40148,28.05563 -42.66677,25.64748l0,0l0,-0.00001zm102.01152,-160.29816c18.95528,-3.77462 37.9424,-7.40267 56.84971,-11.40935c2.96968,-13.62326 -18.02621,0.08755 -25.50968,-1.31622c-29.99033,5.91188 -59.99664,11.74346 -89.97964,17.69212c-2.27996,13.13013 15.37491,1.24629 22.60853,2.13258c12.00937,-2.37139 24.01991,-4.73706 36.03108,-7.09912l0,-0.00001zm-2.17817,-17.6486c19.85608,-3.90931 39.72171,-7.76784 59.5692,-11.71912c1.64929,-13.15478 -17.21505,-0.28074 -24.57575,-1.55657c-30.40594,5.95124 -60.79784,11.97345 -91.19584,17.96509c-2.79163,12.71158 14.6476,1.28307 21.54902,2.11859c11.55028,-2.27347 23.10162,-4.54177 34.65337,-6.808l0.00001,0zm123.92954,-6.54175c18.77676,-3.68709 37.55356,-7.37417 56.33089,-11.06075c1.76379,-13.11537 -16.60948,-0.90286 -24.108,-1.88913c-30.3861,5.9642 -60.76286,11.97449 -91.14377,17.96509c-3.57987,11.11358 8.64739,3.97095 14.9654,3.61043c14.65199,-2.87331 29.30399,-5.74923 43.95548,-8.62565zm-121.59857,-11.74553c18.99311,-3.74718 37.98644,-7.49404 56.97923,-11.24116c3.19965,-13.38022 -14.42927,-1.81168 -21.49005,-2.55739c-31.35599,6.30866 -62.70628,12.64497 -94.07558,18.8863c-1.81681,13.70096 18.91042,-0.37192 26.63053,1.19138c10.6538,-2.08338 21.30547,-4.17815 31.95587,-6.27914l0,0.00001zm120.56309,-6.14036c19.1228,-3.75474 38.24562,-7.50947 57.36793,-11.26421c2.26884,-12.59515 -14.52045,-1.32151 -21.35489,-2.16108c-31.3827,6.18605 -62.78199,12.28823 -94.15797,18.51049c-0.48432,12.97732 19.82261,-0.51489 28.39957,0.74176c9.91598,-1.9373 19.83142,-3.8803 29.74535,-5.82697l0.00001,0.00001zm-0.3885,-17.77987c19.06065,-3.83213 38.21713,-7.32103 57.21612,-11.38112c2.84692,-13.31966 -18.31419,0.42989 -25.7236,-1.10151c-29.5542,5.77606 -59.22338,11.11855 -88.71282,17.1333c-3.15563,14.09272 18.37534,0.04678 26.08776,1.46147c10.377,-2.04028 20.75451,-4.07718 31.13254,-6.11213l-0.00001,0z" stroke-width="1.5" stroke="#1ed760" fill="#1ed760"/>
 </g>
</svg>