<svg width="400" height="400" xmlns="http://www.w3.org/2000/svg">
 <!-- Created with Method Draw - http://github.com/duopixel/Method-Draw/ -->
 <g>
  <title>background</title>
  <rect fill="none" id="canvas_background" height="402" width="402" y="-1" x="-1"/>
 </g>
 <g>
  <title>Layer 1</title>
  <path id="svg_4" d="m310.09908,192.167l-44.18163,15.71758l0,-31.41843l44.18163,15.70085zm-32.07959,-77.42458l-20.12821,42.3655l-22.21217,-22.22892l42.34038,-20.13658zm-77.41619,-32.06287l15.70921,44.19001l-31.42679,0l15.71758,-44.19001zm-77.42456,32.06287l42.35712,20.13658l-22.22054,22.22892l-20.13658,-42.3655zm-32.07122,77.42458l44.19,-15.70085l0,31.41843l-44.19,-15.71758zm32.07122,77.42458l20.13658,-42.34876l22.22054,22.22055l-42.35712,20.12822l0,0zm77.42456,32.08797l-15.71758,-44.19838l31.42679,0l-15.70921,44.19838zm77.41619,-32.08797l-42.34875,-20.11985l22.21217,-22.22055l20.13658,42.34039zm-132.15989,-77.42458l0,0c0,-30.22999 24.51373,-54.74372 54.75207,-54.74372c30.22997,0 54.75207,24.51374 54.75207,54.74372c0,30.23835 -24.5221,54.75209 -54.75207,54.75209c-30.24671,0 -54.75207,-24.51374 -54.75207,-54.75209l0,0z" stroke-width="1.5" stroke="#fddb27" fill="#fddb27"/>
 </g>
</svg>