<svg width="400" height="400" xmlns="http://www.w3.org/2000/svg">
 <!-- Created with Method Draw - http://github.com/duopixel/Method-Draw/ -->
 <g>
  <title>background</title>
  <rect fill="none" id="canvas_background" height="402" width="402" y="-1" x="-1"/>
 </g>
 <g>
  <title>Layer 1</title>
  <path id="svg_6" d="m229.03748,143.29953l-29.47775,-5.22065l10.86023,-5.67083c5.9731,-3.11901 11.38891,-6.13841 12.03509,-6.70979c1.60515,-1.41927 -18.38458,-32.3091 -20.8916,-32.28353c-1.10205,0.01249 -8.78132,11.97363 -17.06502,26.58316c-8.34365,14.71502 -16.64743,25.92164 -18.61754,25.12546c-23.31746,-9.42221 -42.34274,-18.9554 -42.34274,-21.21706c0,-1.54483 7.31604,-15.32542 16.25795,-30.62355l16.25796,-27.81475l44.32789,0l44.32789,0l11.57081,18.30012l11.5709,18.30012l12.07099,-6.19278c8.36787,-4.29304 11.55413,-4.90949 10.38599,-2.00978c-10.28486,25.53377 -25.63151,55.30659 -28.35945,55.01778c-1.88865,-0.1998 -16.69884,-2.7126 -32.91162,-5.5839l-0.00001,-0.00001zm-137.48013,113.91704c-11.21798,-19.31826 -21.27189,-37.4057 -22.34193,-40.19443c-1.09816,-2.86164 2.10134,-13.08723 7.34529,-23.47531l9.29086,-18.40523l-9.49759,-5.61041c-12.63933,-7.46622 -7.9412,-9.76576 25.58736,-12.52399l26.4985,-2.17985l10.39395,27.46324c5.71676,15.10477 11.12546,29.41393 12.01947,31.79832c0.93236,2.48665 -3.5298,0.83215 -10.4646,-3.88017l-12.09002,-8.21545l-8.43976,16.29186c-4.64178,8.96067 -8.50557,17.29049 -8.58606,18.51071c-0.08068,1.22022 14.16579,2.61658 31.65855,3.10293l31.80495,0.88423l2.07559,23.2649c1.14162,12.79577 1.83971,23.43593 1.55146,23.64483c-0.28824,0.20869 -15.34832,1.34009 -33.46682,2.51394l-32.94278,2.13419l-20.39645,-35.12433l0,0.00003zm125.54608,34.13327c-19.25823,-29.06699 -19.59297,-26.90492 9.03083,-58.3241l18.37454,-20.16899l-1.95154,14.73888l-1.95162,14.73889l20.59075,0c11.32489,0 20.59085,-0.90566 20.59085,-2.01244c0,-1.10696 -6.28348,-13.53949 -13.96324,-27.6282c-7.67975,-14.08871 -13.93408,-26.79717 -13.89856,-28.24104c0.07974,-3.23758 40.33598,-29.97188 42.24976,-28.05812c0.7583,0.75831 8.22904,14.26409 16.60166,30.01315l15.22315,28.63424l-20.48317,33.03954c-11.26591,18.17152 -22.08995,34.81184 -24.05331,36.97826c-1.96359,2.16642 -12.94283,4.81425 -24.39841,5.88387c-21.8659,2.04196 -21.27065,1.55014 -24.47669,20.22203c-0.56105,3.26769 -7.10345,-4.14682 -17.48499,-19.81597l0,0.00002z" stroke-width="1.5" stroke="#2bae66" fill="#2bae66"/>
 </g>
</svg>