<svg width="400" height="400" xmlns="http://www.w3.org/2000/svg">
 <!-- Created with Method Draw - http://github.com/duopixel/Method-Draw/ -->
 <g>
  <title>background</title>
  <rect fill="none" id="canvas_background" height="402" width="402" y="-1" x="-1"/>
 </g>
 <g>
  <title>Layer 1</title>
  <path id="svg_3" d="m207.87683,158.5719c0,0 6.87246,2.7798 7.55972,4.86463c0.68714,2.08471 32.30066,-6.25435 39.17312,-11.11898c6.87246,-4.86463 22.67916,-4.32561 22.67916,-13.20392c0,-2.7798 -3.13548,-9.98981 2.74903,-7.64443c1.14438,0.4563 1.37463,4.16976 1.37463,4.16976c0,0 -1.20264,-3.43138 -2.96384,-2.47584c-0.85995,0.46671 1.2471,6.2189 2.27647,8.03533c0,0 57.53288,-9.02515 70.09938,-5.55949c5.03989,1.38973 21.99214,3.47467 21.53385,10.88732c0,0 -23.36537,8.09968 -27.0318,37.75859c-0.45806,3.70621 -29.97166,-4.71849 -49.48188,32.66207c-4.35263,8.33918 -5.49806,5.32771 -6.87258,4.86463c-1.37452,-0.46332 -28.86449,-17.837 -51.54365,15.28851c0,0 1.14543,-0.23154 1.37452,0.69498c0.22909,0.92664 11.2251,-2.54803 11.68327,3.4749c0,0 -5.12355,-2.34983 -3.97812,-0.03311c1.14531,2.31637 0.56441,4.97238 -0.14531,3.50754c-0.13595,-0.28057 -2.97812,-2.77969 -2.06189,-0.69475c0.91634,2.08471 -4.40224,6.86813 -4.68351,6.1666c-1.11934,-2.79209 2.62185,-5.93506 -4.25061,-8.94629c-6.87258,-3.01146 -25.88649,4.16953 -35.73695,26.4076c0,0 -0.68726,1.15818 -2.06177,-0.69498c-1.37452,-1.85316 -10.99601,-26.63938 -30.92626,-27.79756c0,0 -0.91634,3.47467 -4.12343,4.16965c-3.2072,0.69498 -2.51983,11.35052 -4.12355,7.64431c-1.6036,-3.70633 -1.27226,0.71651 -1.37452,0c-0.37159,-2.60664 1.17527,-6.67544 -3.43629,-4.86463c-0.60407,0.23716 -0.91634,3.9381 -2.06166,2.08494c-1.14543,-1.85316 1.41348,-5.17175 3.01696,-6.56159c1.6036,-1.38984 -5.34374,-1.54335 -2.3297,-3.16766c3.05078,-1.64408 11.68315,3.70644 8.24698,-2.08471c-3.43629,-5.79127 -23.18928,-32.83945 -51.54365,-14.59376c-5.03989,3.24301 -3.43629,-0.6951 -6.18532,-4.16988c-2.74892,-3.47455 -22.0118,-36.5714 -48.10736,-32.66207c-6.18532,0.92676 -3.43629,-4.86451 -5.49795,-6.94933c-2.06189,-2.08482 -14.50882,-38.54987 -26.80271,-35.44188c-2.74903,0.69475 -0.777,-11.90686 22.67916,-10.42412c3.66538,0.23154 1.37452,-2.7798 5.49806,-2.08494c4.12343,0.6951 54.97982,7.87609 60.47777,9.72925c5.49806,1.85316 11.68327,3.61518 11.68327,-7.64431c0,-0.21727 -0.90207,-0.78179 -2.74903,0.69486c-0.81608,-0.73839 5.95624,-4.63297 4.81081,2.7798c-1.14543,7.41265 -3.64911,5.42014 0.68726,7.6442c6.14016,3.14917 11.00502,8.61167 20.61739,9.03439c5.26898,0.23166 31.83874,13.42095 37.79872,11.81396c3.43629,-0.92664 8.01789,-3.01146 6.18521,-4.16976c-1.83257,-1.15807 -8.01789,-8.57084 -7.55972,-12.50882c0.45817,-3.93799 1.83269,-6.94933 0,-8.33929c-1.83269,-1.38984 2.06177,-5.32783 5.49806,-0.69498c3.43617,4.63297 3.43617,8.10763 6.18521,8.33929c2.74903,0.23178 7.78892,-1.15807 9.6215,0c0,0 8.01801,-11.58218 12.37041,-9.72925c4.35263,1.85328 0.91634,4.40131 1.37452,6.25447c0.45817,1.85316 -4.5816,15.75218 -9.62138,15.28874z" stroke-width="1.5" stroke="#e94b3c" fill="#e94b3c"/>
 </g>
</svg>